# xmcd
#
# Track frame offsets: 
#        150
#        24971
#        40666
#        53030
#        66053
#        78761
#        126503
#        146319
#        172569
#        191004
#        209620
#        228770
#        247750
#        273957
#
# Disc length: 3981 seconds
#
# Revision: 0
# Processed by: cddbd v1.5.2PL0 Copyright (c) Steve Scherf et al.
# Submitted via: ExactAudioCopy v0.99pb5
#
DISCID=aa0f8b0e
DTITLE=Atrium Carceri - Phrenitis
DYEAR=2009
DGENRE=Ambient
TTITLE0=Faces Of War
TTITLE1=Inside The City
TTITLE2=Surfacing
TTITLE3=Hypnosis
TTITLE4=Floating
TTITLE5=Eraser
TTITLE6=At The End Of Time
TTITLE7=Time Freeze
TTITLE8=The Circle Of 12
TTITLE9=Through The Loop
TTITLE10=The Way Back
TTITLE11=Sub Surface
TTITLE12=Reunion
TTITLE13=Resistance
EXTD=
EXTT0=
EXTT1=
EXTT2=
EXTT3=
EXTT4=
EXTT5=
EXTT6=
EXTT7=
EXTT8=
EXTT9=
EXTT10=
EXTT11=
EXTT12=
EXTT13=
PLAYORDER=
